0
SECTION
2
HEADER
9
$ACADVER
1
AC1009
9
$INSUNITS
70
4
0
ENDSEC
0
SECTION
2
TABLES
0
TABLE
2
LTYPE
70
3
0
LTYPE
2
HIDDEN
70
0
3

72
65
73
2
40
4.500000
49
3.000000
74
0
49
-1.500000
74
0
0
LTYPE
2
CENTER
70
0
3

72
65
73
4
40
30.000000
49
24.000000
74
0
49
-1.500000
74
0
49
3.000000
74
0
49
-1.500000
74
0
0
ENDTAB
0
TABLE
2
LAYER
70
3
0
LAYER
2
VISIBLE
70
0
62
7
6
CONTINUOUS
0
LAYER
2
HIDDEN
70
0
62
1
6
HIDDEN
0
LAYER
2
CENTER
70
0
62
3
6
CENTER
0
ENDTAB
0
ENDSEC
0
SECTION
2
ENTITIES
0
POLYLINE
8
VISIBLE
62
7
66
1
70
1
0
VERTEX
8
VISIBLE
10
105.700000
20
101.950000
0
VERTEX
8
VISIBLE
10
173.700000
20
101.950000
42
0.414214
0
VERTEX
8
VISIBLE
10
179.700000
20
107.950000
0
VERTEX
8
VISIBLE
10
179.700000
20
145.950000
42
0.414214
0
VERTEX
8
VISIBLE
10
173.700000
20
151.950000
0
VERTEX
8
VISIBLE
10
105.700000
20
151.950000
42
0.414214
0
VERTEX
8
VISIBLE
10
99.700000
20
145.950000
0
VERTEX
8
VISIBLE
10
99.700000
20
107.950000
42
0.414214
0
SEQEND
0
POLYLINE
8
HIDDEN
62
1
66
1
70
1
0
VERTEX
8
HIDDEN
10
124.700000
20
118.950000
0
VERTEX
8
HIDDEN
10
154.700000
20
118.950000
0
VERTEX
8
HIDDEN
10
154.700000
20
134.950000
0
VERTEX
8
HIDDEN
10
124.700000
20
134.950000
0
SEQEND
0
POLYLINE
8
VISIBLE
62
7
66
1
70
1
0
VERTEX
8
VISIBLE
10
115.700000
20
113.950000
42
1.000000
0
VERTEX
8
VISIBLE
10
107.700000
20
113.950000
42
1.000000
0
SEQEND
0
POLYLINE
8
CENTER
62
3
66
1
70
0
0
VERTEX
8
CENTER
10
105.200000
20
113.950000
0
VERTEX
8
CENTER
10
118.200000
20
113.950000
0
SEQEND
0
POLYLINE
8
CENTER
62
3
66
1
70
0
0
VERTEX
8
CENTER
10
111.700000
20
107.450000
0
VERTEX
8
CENTER
10
111.700000
20
120.450000
0
SEQEND
0
POLYLINE
8
VISIBLE
62
7
66
1
70
1
0
VERTEX
8
VISIBLE
10
171.700000
20
113.950000
42
1.000000
0
VERTEX
8
VISIBLE
10
163.700000
20
113.950000
42
1.000000
0
SEQEND
0
POLYLINE
8
CENTER
62
3
66
1
70
0
0
VERTEX
8
CENTER
10
161.200000
20
113.950000
0
VERTEX
8
CENTER
10
174.200000
20
113.950000
0
SEQEND
0
POLYLINE
8
CENTER
62
3
66
1
70
0
0
VERTEX
8
CENTER
10
167.700000
20
107.450000
0
VERTEX
8
CENTER
10
167.700000
20
120.450000
0
SEQEND
0
POLYLINE
8
VISIBLE
62
7
66
1
70
1
0
VERTEX
8
VISIBLE
10
115.700000
20
139.950000
42
1.000000
0
VERTEX
8
VISIBLE
10
107.700000
20
139.950000
42
1.000000
0
SEQEND
0
POLYLINE
8
CENTER
62
3
66
1
70
0
0
VERTEX
8
CENTER
10
105.200000
20
139.950000
0
VERTEX
8
CENTER
10
118.200000
20
139.950000
0
SEQEND
0
POLYLINE
8
CENTER
62
3
66
1
70
0
0
VERTEX
8
CENTER
10
111.700000
20
133.450000
0
VERTEX
8
CENTER
10
111.700000
20
146.450000
0
SEQEND
0
POLYLINE
8
VISIBLE
62
7
66
1
70
1
0
VERTEX
8
VISIBLE
10
171.700000
20
139.950000
42
1.000000
0
VERTEX
8
VISIBLE
10
163.700000
20
139.950000
42
1.000000
0
SEQEND
0
POLYLINE
8
CENTER
62
3
66
1
70
0
0
VERTEX
8
CENTER
10
161.200000
20
139.950000
0
VERTEX
8
CENTER
10
174.200000
20
139.950000
0
SEQEND
0
POLYLINE
8
CENTER
62
3
66
1
70
0
0
VERTEX
8
CENTER
10
167.700000
20
133.450000
0
VERTEX
8
CENTER
10
167.700000
20
146.450000
0
SEQEND
0
POLYLINE
8
VISIBLE
62
7
66
1
70
0
0
VERTEX
8
VISIBLE
10
43.029437
20
60.000000
0
VERTEX
8
VISIBLE
10
45.000000
20
61.970563
0
SEQEND
0
POLYLINE
8
VISIBLE
62
7
66
1
70
0
0
VERTEX
8
VISIBLE
10
40.201010
20
60.000000
0
VERTEX
8
VISIBLE
10
45.000000
20
64.798990
0
SEQEND
0
POLYLINE
8
VISIBLE
62
7
66
1
70
0
0
VERTEX
8
VISIBLE
10
37.372583
20
60.000000
0
VERTEX
8
VISIBLE
10
45.000000
20
67.627417
0
SEQEND
0
POLYLINE
8
VISIBLE
62
7
66
1
70
0
0
VERTEX
8
VISIBLE
10
34.544156
20
60.000000
0
VERTEX
8
VISIBLE
10
45.000000
20
70.455844
0
SEQEND
0
POLYLINE
8
VISIBLE
62
7
66
1
70
0
0
VERTEX
8
VISIBLE
10
31.715729
20
60.000000
0
VERTEX
8
VISIBLE
10
45.000000
20
73.284271
0
SEQEND
0
POLYLINE
8
VISIBLE
62
7
66
1
70
0
0
VERTEX
8
VISIBLE
10
28.887302
20
60.000000
0
VERTEX
8
VISIBLE
10
34.690714
20
65.803412
0
SEQEND
0
POLYLINE
8
VISIBLE
62
7
66
1
70
0
0
VERTEX
8
VISIBLE
10
36.196588
20
67.309286
0
VERTEX
8
VISIBLE
10
45.000000
20
76.112698
0
SEQEND
0
POLYLINE
8
VISIBLE
62
7
66
1
70
0
0
VERTEX
8
VISIBLE
10
26.058875
20
60.000000
0
VERTEX
8
VISIBLE
10
31.134588
20
65.075714
0
SEQEND
0
POLYLINE
8
VISIBLE
62
7
66
1
70
0
0
VERTEX
8
VISIBLE
10
36.924286
20
70.865412
0
VERTEX
8
VISIBLE
10
45.000000
20
78.941125
0
SEQEND
0
POLYLINE
8
VISIBLE
62
7
66
1
70
0
0
VERTEX
8
VISIBLE
10
23.230447
20
60.000000
0
VERTEX
8
VISIBLE
10
29.147290
20
65.916843
0
SEQEND
0
POLYLINE
8
VISIBLE
62
7
66
1
70
0
0
VERTEX
8
VISIBLE
10
36.083157
20
72.852710
0
VERTEX
8
VISIBLE
10
43.230447
20
80.000000
0
SEQEND
0
POLYLINE
8
VISIBLE
62
7
66
1
70
0
0
VERTEX
8
VISIBLE
10
20.402020
20
60.000000
0
VERTEX
8
VISIBLE
10
27.765480
20
67.363459
0
SEQEND
0
POLYLINE
8
VISIBLE
62
7
66
1
70
0
0
VERTEX
8
VISIBLE
10
34.636541
20
74.234520
0
VERTEX
8
VISIBLE
10
40.402020
20
80.000000
0
SEQEND
0
POLYLINE
8
VISIBLE
62
7
66
1
70
0
0
VERTEX
8
VISIBLE
10
20.000000
20
62.426407
0
VERTEX
8
VISIBLE
10
27.046146
20
69.472553
0
SEQEND
0
POLYLINE
8
VISIBLE
62
7
66
1
70
0
0
VERTEX
8
VISIBLE
10
32.527447
20
74.953854
0
VERTEX
8
VISIBLE
10
37.573593
20
80.000000
0
SEQEND
0
POLYLINE
8
VISIBLE
62
7
66
1
70
0
0
VERTEX
8
VISIBLE
10
20.000000
20
65.254834
0
VERTEX
8
VISIBLE
10
34.745166
20
80.000000
0
SEQEND
0
POLYLINE
8
VISIBLE
62
7
66
1
70
0
0
VERTEX
8
VISIBLE
10
20.000000
20
68.083261
0
VERTEX
8
VISIBLE
10
31.916739
20
80.000000
0
SEQEND
0
POLYLINE
8
VISIBLE
62
7
66
1
70
0
0
VERTEX
8
VISIBLE
10
20.000000
20
70.911688
0
VERTEX
8
VISIBLE
10
29.088312
20
80.000000
0
SEQEND
0
POLYLINE
8
VISIBLE
62
7
66
1
70
0
0
VERTEX
8
VISIBLE
10
20.000000
20
73.740115
0
VERTEX
8
VISIBLE
10
26.259885
20
80.000000
0
SEQEND
0
POLYLINE
8
VISIBLE
62
7
66
1
70
0
0
VERTEX
8
VISIBLE
10
20.000000
20
76.568542
0
VERTEX
8
VISIBLE
10
23.431458
20
80.000000
0
SEQEND
0
POLYLINE
8
VISIBLE
62
7
66
1
70
0
0
VERTEX
8
VISIBLE
10
20.000000
20
79.396970
0
VERTEX
8
VISIBLE
10
20.603030
20
80.000000
0
SEQEND
0
POLYLINE
8
VISIBLE
62
7
66
1
70
1
0
VERTEX
8
VISIBLE
10
20.000000
20
60.000000
0
VERTEX
8
VISIBLE
10
45.000000
20
60.000000
0
VERTEX
8
VISIBLE
10
45.000000
20
80.000000
0
VERTEX
8
VISIBLE
10
20.000000
20
80.000000
0
SEQEND
0
POLYLINE
8
VISIBLE
62
7
66
1
70
1
0
VERTEX
8
VISIBLE
10
37.000000
20
70.000000
42
1.000000
0
VERTEX
8
VISIBLE
10
27.000000
20
70.000000
42
1.000000
0
SEQEND
0
ENDSEC
0
EOF
