<?xml version="1.0" encoding="UTF-8" standalone="no"?>
<svg xmlns="http://www.w3.org/2000/svg" version="1.1" width="279.4mm" height="215.9mm" viewBox="0 0 279.4 215.9">
<g transform="translate(0, 215.9) scale(1, -1)">
<path d="M 10 10 L 269.4 10 L 269.4 205.9 L 10 205.9 L 10 10 Z" fill="none" stroke="black" stroke-width="0.5" />
<path d="M 61.88 205.9 L 61.88 215.9" fill="none" stroke="black" stroke-width="0.2" />
<path d="M 61.88 0 L 61.88 10" fill="none" stroke="black" stroke-width="0.2" />
<path d="M 113.76 205.9 L 113.76 215.9" fill="none" stroke="black" stroke-width="0.2" />
<path d="M 113.76 0 L 113.76 10" fill="none" stroke="black" stroke-width="0.2" />
<path d="M 165.64 205.9 L 165.64 215.9" fill="none" stroke="black" stroke-width="0.2" />
<path d="M 165.64 0 L 165.64 10" fill="none" stroke="black" stroke-width="0.2" />
<path d="M 217.52 205.9 L 217.52 215.9" fill="none" stroke="black" stroke-width="0.2" />
<path d="M 217.52 0 L 217.52 10" fill="none" stroke="black" stroke-width="0.2" />
<path d="M 0 58.975 L 10 58.975" fill="none" stroke="black" stroke-width="0.2" />
<path d="M 269.4 58.975 L 279.4 58.975" fill="none" stroke="black" stroke-width="0.2" />
<path d="M 0 107.95 L 10 107.95" fill="none" stroke="black" stroke-width="0.2" />
<path d="M 269.4 107.95 L 279.4 107.95" fill="none" stroke="black" stroke-width="0.2" />
<path d="M 0 156.925 L 10 156.925" fill="none" stroke="black" stroke-width="0.2" />
<path d="M 269.4 156.925 L 279.4 156.925" fill="none" stroke="black" stroke-width="0.2" />
<g transform="translate(35.94 210.025) scale(1,-1)"><text x="0" y="0" font-size="2.5" text-anchor="middle" dominant-baseline="auto" font-family="Arial, sans-serif" fill="black" font-weight="normal">1</text></g>
<g transform="translate(35.94 4.125) scale(1,-1)"><text x="0" y="0" font-size="2.5" text-anchor="middle" dominant-baseline="auto" font-family="Arial, sans-serif" fill="black" font-weight="normal">1</text></g>
<g transform="translate(87.82 210.025) scale(1,-1)"><text x="0" y="0" font-size="2.5" text-anchor="middle" dominant-baseline="auto" font-family="Arial, sans-serif" fill="black" font-weight="normal">2</text></g>
<g transform="translate(87.82 4.125) scale(1,-1)"><text x="0" y="0" font-size="2.5" text-anchor="middle" dominant-baseline="auto" font-family="Arial, sans-serif" fill="black" font-weight="normal">2</text></g>
<g transform="translate(139.7 210.025) scale(1,-1)"><text x="0" y="0" font-size="2.5" text-anchor="middle" dominant-baseline="auto" font-family="Arial, sans-serif" fill="black" font-weight="normal">3</text></g>
<g transform="translate(139.7 4.125) scale(1,-1)"><text x="0" y="0" font-size="2.5" text-anchor="middle" dominant-baseline="auto" font-family="Arial, sans-serif" fill="black" font-weight="normal">3</text></g>
<g transform="translate(191.58 210.025) scale(1,-1)"><text x="0" y="0" font-size="2.5" text-anchor="middle" dominant-baseline="auto" font-family="Arial, sans-serif" fill="black" font-weight="normal">4</text></g>
<g transform="translate(191.58 4.125) scale(1,-1)"><text x="0" y="0" font-size="2.5" text-anchor="middle" dominant-baseline="auto" font-family="Arial, sans-serif" fill="black" font-weight="normal">4</text></g>
<g transform="translate(243.46 210.025) scale(1,-1)"><text x="0" y="0" font-size="2.5" text-anchor="middle" dominant-baseline="auto" font-family="Arial, sans-serif" fill="black" font-weight="normal">5</text></g>
<g transform="translate(243.46 4.125) scale(1,-1)"><text x="0" y="0" font-size="2.5" text-anchor="middle" dominant-baseline="auto" font-family="Arial, sans-serif" fill="black" font-weight="normal">5</text></g>
<g transform="translate(5 180.5375) scale(1,-1)"><text x="0" y="0" font-size="2.5" text-anchor="middle" dominant-baseline="auto" font-family="Arial, sans-serif" fill="black" font-weight="normal">A</text></g>
<g transform="translate(274.4 180.5375) scale(1,-1)"><text x="0" y="0" font-size="2.5" text-anchor="middle" dominant-baseline="auto" font-family="Arial, sans-serif" fill="black" font-weight="normal">A</text></g>
<g transform="translate(5 131.5625) scale(1,-1)"><text x="0" y="0" font-size="2.5" text-anchor="middle" dominant-baseline="auto" font-family="Arial, sans-serif" fill="black" font-weight="normal">B</text></g>
<g transform="translate(274.4 131.5625) scale(1,-1)"><text x="0" y="0" font-size="2.5" text-anchor="middle" dominant-baseline="auto" font-family="Arial, sans-serif" fill="black" font-weight="normal">B</text></g>
<g transform="translate(5 82.5875) scale(1,-1)"><text x="0" y="0" font-size="2.5" text-anchor="middle" dominant-baseline="auto" font-family="Arial, sans-serif" fill="black" font-weight="normal">C</text></g>
<g transform="translate(274.4 82.5875) scale(1,-1)"><text x="0" y="0" font-size="2.5" text-anchor="middle" dominant-baseline="auto" font-family="Arial, sans-serif" fill="black" font-weight="normal">C</text></g>
<g transform="translate(5 33.6125) scale(1,-1)"><text x="0" y="0" font-size="2.5" text-anchor="middle" dominant-baseline="auto" font-family="Arial, sans-serif" fill="black" font-weight="normal">D</text></g>
<g transform="translate(274.4 33.6125) scale(1,-1)"><text x="0" y="0" font-size="2.5" text-anchor="middle" dominant-baseline="auto" font-family="Arial, sans-serif" fill="black" font-weight="normal">D</text></g>
<path d="M 109.7 110.95 L 169.7 110.95 L 169.7 142.95 L 109.7 142.95 L 109.7 110.95 Z" fill="none" stroke="black" stroke-width="0.5" />
<path d="M 109.7 109.95 L 109.7 96.95" fill="none" stroke="black" stroke-width="0.25" />
<path d="M 169.7 109.95 L 169.7 96.95" fill="none" stroke="black" stroke-width="0.25" />
<path d="M 112.7 98.95 L 134.6375 98.95" fill="none" stroke="black" stroke-width="0.25" />
<path d="M 166.7 98.95 L 144.7625 98.95" fill="none" stroke="black" stroke-width="0.25" />
<path d="M 109.7 98.95 L 112.7 98.45 L 112.7 99.45 L 109.7 98.95 Z" fill="black" />
<path d="M 169.7 98.95 L 166.7 99.45 L 166.7 98.45 L 169.7 98.95 Z" fill="black" />
<g transform="translate(139.7 98.075) scale(1,-1)"><text x="0" y="0" font-size="2.5" text-anchor="middle" dominant-baseline="auto" font-family="Arial, sans-serif" fill="black" font-weight="normal">30.00</text></g>
<path d="M 110.7 110.95 L 123.7 110.95" fill="none" stroke="black" stroke-width="0.25" />
<path d="M 110.7 142.95 L 123.7 142.95" fill="none" stroke="black" stroke-width="0.25" />
<path d="M 121.7 113.95 L 121.7 124.2" fill="none" stroke="black" stroke-width="0.25" />
<path d="M 121.7 139.95 L 121.7 129.7" fill="none" stroke="black" stroke-width="0.25" />
<path d="M 121.7 110.95 L 122.2 113.95 L 121.2 113.95 L 121.7 110.95 Z" fill="black" />
<path d="M 121.7 142.95 L 121.2 139.95 L 122.2 139.95 L 121.7 142.95 Z" fill="black" />
<g transform="translate(121.7 126.075) scale(1,-1)"><text x="0" y="0" font-size="2.5" text-anchor="middle" dominant-baseline="auto" font-family="Arial, sans-serif" fill="black" font-weight="normal">16.00</text></g>
<path d="M 139.7 142.95 L 143.7 149.8782" fill="none" stroke="black" stroke-width="0.25" />
<path d="M 143.7 149.8782 L 147.7 149.8782" fill="none" stroke="black" stroke-width="0.25" />
<path d="M 139.7 142.95 L 141.63301 145.29808 L 140.76699 145.79808 L 139.7 142.95 Z" fill="black" />
<g transform="translate(148.7 149.0032) scale(1,-1)"><text x="0" y="0" font-size="2.5" text-anchor="start" dominant-baseline="auto" font-family="Arial, sans-serif" fill="black" font-weight="normal">X 3.00 DEEP</text></g>
<path d="M 147.7 187.95 A 8 8 0 0 1 131.7 187.95 A 8 8 0 0 1 147.7 187.95 Z" fill="none" stroke="black" stroke-width="0.5" />
<path d="M 128.7 187.95 L 150.7 187.95" fill="none" stroke="black" stroke-width="0.25" stroke-dasharray="24,1.5,3,1.5" />
<path d="M 139.7 176.95 L 139.7 198.95" fill="none" stroke="black" stroke-width="0.25" stroke-dasharray="24,1.5,3,1.5" />
<path d="M 145.82836 193.0923 L 151.95671 198.2346" fill="none" stroke="black" stroke-width="0.25" />
<path d="M 151.95671 198.2346 L 155.95671 198.2346" fill="none" stroke="black" stroke-width="0.25" />
<path d="M 145.82836 193.0923 L 148.44788 194.63764 L 147.8051 195.40369 L 145.82836 193.0923 Z" fill="black" />
<g transform="translate(156.95671 197.3596) scale(1,-1)"><text x="0" y="0" font-size="2.5" text-anchor="start" dominant-baseline="auto" font-family="Arial, sans-serif" fill="black" font-weight="normal">⌀16.00 THRU</text></g>
<g transform="translate(156.95671 194.1096) scale(1,-1)"><text x="0" y="0" font-size="2.5" text-anchor="start" dominant-baseline="auto" font-family="Arial, sans-serif" fill="black" font-weight="normal">⌴⌀14.00 X 5.00 DEEP</text></g>
<path d="M 79.4 10 L 269.4 10 L 269.4 48 L 79.4 48 L 79.4 10 Z" fill="none" stroke="black" stroke-width="0.25" />
<path d="M 79.4 40.4 L 99.35 40.4 L 99.35 48 L 79.4 48 L 79.4 40.4 Z" fill="none" stroke="black" stroke-width="0.25" />
<path d="M 99.35 40.4 L 137.255 40.4 L 137.255 48 L 99.35 48 L 99.35 40.4 Z" fill="none" stroke="black" stroke-width="0.25" />
<g transform="translate(118.3025 43.5) scale(1,-1)"><text x="0" y="0" font-size="2" text-anchor="middle" dominant-baseline="auto" font-family="Arial, sans-serif" fill="black" font-weight="normal">NAME</text></g>
<path d="M 137.255 40.4 L 159.2 40.4 L 159.2 48 L 137.255 48 L 137.255 40.4 Z" fill="none" stroke="black" stroke-width="0.25" />
<g transform="translate(148.2275 43.5) scale(1,-1)"><text x="0" y="0" font-size="2" text-anchor="middle" dominant-baseline="auto" font-family="Arial, sans-serif" fill="black" font-weight="normal">DATE</text></g>
<path d="M 79.4 32.8 L 99.35 32.8 L 99.35 40.4 L 79.4 40.4 L 79.4 32.8 Z" fill="none" stroke="black" stroke-width="0.25" />
<g transform="translate(89.375 35.935) scale(1,-1)"><text x="0" y="0" font-size="1.9" text-anchor="middle" dominant-baseline="auto" font-family="Arial, sans-serif" fill="black" font-weight="normal">DRAWN</text></g>
<path d="M 99.35 32.8 L 137.255 32.8 L 137.255 40.4 L 99.35 40.4 L 99.35 32.8 Z" fill="none" stroke="black" stroke-width="0.25" />
<g transform="translate(118.3025 35.1) scale(1,-1)"><text x="0" y="0" font-size="3" text-anchor="middle" dominant-baseline="auto" font-family="Arial, sans-serif" fill="black" font-weight="bold">S. RICHS</text></g>
<path d="M 137.255 32.8 L 159.2 32.8 L 159.2 40.4 L 137.255 40.4 L 137.255 32.8 Z" fill="none" stroke="black" stroke-width="0.25" />
<g transform="translate(148.2275 35.1) scale(1,-1)"><text x="0" y="0" font-size="3" text-anchor="middle" dominant-baseline="auto" font-family="Arial, sans-serif" fill="black" font-weight="bold">2026-07-08</text></g>
<path d="M 79.4 25.2 L 99.35 25.2 L 99.35 32.8 L 79.4 32.8 L 79.4 25.2 Z" fill="none" stroke="black" stroke-width="0.25" />
<g transform="translate(89.375 28.335) scale(1,-1)"><text x="0" y="0" font-size="1.9" text-anchor="middle" dominant-baseline="auto" font-family="Arial, sans-serif" fill="black" font-weight="normal">CHECKED</text></g>
<path d="M 99.35 25.2 L 137.255 25.2 L 137.255 32.8 L 99.35 32.8 L 99.35 25.2 Z" fill="none" stroke="black" stroke-width="0.25" />
<path d="M 137.255 25.2 L 159.2 25.2 L 159.2 32.8 L 137.255 32.8 L 137.255 25.2 Z" fill="none" stroke="black" stroke-width="0.25" />
<path d="M 79.4 17.6 L 99.35 17.6 L 99.35 25.2 L 79.4 25.2 L 79.4 17.6 Z" fill="none" stroke="black" stroke-width="0.25" />
<g transform="translate(89.375 20.735) scale(1,-1)"><text x="0" y="0" font-size="1.9" text-anchor="middle" dominant-baseline="auto" font-family="Arial, sans-serif" fill="black" font-weight="normal">ENG APPR.</text></g>
<path d="M 99.35 17.6 L 137.255 17.6 L 137.255 25.2 L 99.35 25.2 L 99.35 17.6 Z" fill="none" stroke="black" stroke-width="0.25" />
<path d="M 137.255 17.6 L 159.2 17.6 L 159.2 25.2 L 137.255 25.2 L 137.255 17.6 Z" fill="none" stroke="black" stroke-width="0.25" />
<path d="M 79.4 10 L 99.35 10 L 99.35 17.6 L 79.4 17.6 L 79.4 10 Z" fill="none" stroke="black" stroke-width="0.25" />
<g transform="translate(89.375 13.135) scale(1,-1)"><text x="0" y="0" font-size="1.9" text-anchor="middle" dominant-baseline="auto" font-family="Arial, sans-serif" fill="black" font-weight="normal">MFG APPR.</text></g>
<path d="M 99.35 10 L 137.255 10 L 137.255 17.6 L 99.35 17.6 L 99.35 10 Z" fill="none" stroke="black" stroke-width="0.25" />
<path d="M 137.255 10 L 159.2 10 L 159.2 17.6 L 137.255 17.6 L 137.255 10 Z" fill="none" stroke="black" stroke-width="0.25" />
<path d="M 159.2 40 L 176.832 40 L 176.832 48 L 159.2 48 L 159.2 40 Z" fill="none" stroke="black" stroke-width="0.25" />
<g transform="translate(160.5 45.7) scale(1,-1)"><text x="0" y="0" font-size="2" text-anchor="start" dominant-baseline="auto" font-family="Arial, sans-serif" fill="#555555" font-weight="normal">SIZE</text></g>
<g transform="translate(168.016 42.3) scale(1,-1)"><text x="0" y="0" font-size="3" text-anchor="middle" dominant-baseline="auto" font-family="Arial, sans-serif" fill="black" font-weight="bold">A</text></g>
<path d="M 176.832 40 L 248.462 40 L 248.462 48 L 176.832 48 L 176.832 40 Z" fill="none" stroke="black" stroke-width="0.25" />
<g transform="translate(178.132 45.7) scale(1,-1)"><text x="0" y="0" font-size="2" text-anchor="start" dominant-baseline="auto" font-family="Arial, sans-serif" fill="#555555" font-weight="normal">DWG NO</text></g>
<g transform="translate(212.647 42.3) scale(1,-1)"><text x="0" y="0" font-size="3" text-anchor="middle" dominant-baseline="auto" font-family="Arial, sans-serif" fill="black" font-weight="bold">DRW-1000</text></g>
<path d="M 248.462 40 L 269.4 40 L 269.4 48 L 248.462 48 L 248.462 40 Z" fill="none" stroke="black" stroke-width="0.25" />
<g transform="translate(249.762 45.7) scale(1,-1)"><text x="0" y="0" font-size="2" text-anchor="start" dominant-baseline="auto" font-family="Arial, sans-serif" fill="#555555" font-weight="normal">REV</text></g>
<g transform="translate(258.931 42.3) scale(1,-1)"><text x="0" y="0" font-size="3" text-anchor="middle" dominant-baseline="auto" font-family="Arial, sans-serif" fill="black" font-weight="bold">B</text></g>
<path d="M 159.2 26 L 269.4 26 L 269.4 40 L 159.2 40 L 159.2 26 Z" fill="none" stroke="black" stroke-width="0.25" />
<g transform="translate(160.5 37.7) scale(1,-1)"><text x="0" y="0" font-size="2" text-anchor="start" dominant-baseline="auto" font-family="Arial, sans-serif" fill="#555555" font-weight="normal">TITLE</text></g>
<g transform="translate(214.3 28.3) scale(1,-1)"><text x="0" y="0" font-size="3.9" text-anchor="middle" dominant-baseline="auto" font-family="Arial, sans-serif" fill="black" font-weight="bold">BRACKET, MOUNTING - POCKET DETAIL</text></g>
<path d="M 159.2 18 L 186.75 18 L 186.75 26 L 159.2 26 L 159.2 18 Z" fill="none" stroke="black" stroke-width="0.25" />
<g transform="translate(160.5 23.7) scale(1,-1)"><text x="0" y="0" font-size="2" text-anchor="start" dominant-baseline="auto" font-family="Arial, sans-serif" fill="#555555" font-weight="normal">MATERIAL</text></g>
<g transform="translate(172.975 20.3) scale(1,-1)"><text x="0" y="0" font-size="3" text-anchor="middle" dominant-baseline="auto" font-family="Arial, sans-serif" fill="black" font-weight="bold">AL 6061-T6</text></g>
<path d="M 186.75 18 L 214.3 18 L 214.3 26 L 186.75 26 L 186.75 18 Z" fill="none" stroke="black" stroke-width="0.25" />
<g transform="translate(188.05 23.7) scale(1,-1)"><text x="0" y="0" font-size="2" text-anchor="start" dominant-baseline="auto" font-family="Arial, sans-serif" fill="#555555" font-weight="normal">FINISH</text></g>
<g transform="translate(200.525 20.3) scale(1,-1)"><text x="0" y="0" font-size="3" text-anchor="middle" dominant-baseline="auto" font-family="Arial, sans-serif" fill="black" font-weight="bold">ANODIZE, CLEAR</text></g>
<path d="M 214.3 18 L 248.462 18 L 248.462 26 L 214.3 26 L 214.3 18 Z" fill="none" stroke="black" stroke-width="0.25" />
<g transform="translate(215.6 23.7) scale(1,-1)"><text x="0" y="0" font-size="2" text-anchor="start" dominant-baseline="auto" font-family="Arial, sans-serif" fill="#555555" font-weight="normal">TOLERANCES</text></g>
<path d="M 248.462 18 L 269.4 18 L 269.4 26 L 248.462 26 L 248.462 18 Z" fill="none" stroke="black" stroke-width="0.25" />
<path d="M 159.2 10 L 214.3 10 L 214.3 18 L 159.2 18 L 159.2 10 Z" fill="none" stroke="black" stroke-width="0.25" />
<g transform="translate(160.5 15.7) scale(1,-1)"><text x="0" y="0" font-size="2" text-anchor="start" dominant-baseline="auto" font-family="Arial, sans-serif" fill="#555555" font-weight="normal">SCALE</text></g>
<g transform="translate(186.75 12.3) scale(1,-1)"><text x="0" y="0" font-size="3" text-anchor="middle" dominant-baseline="auto" font-family="Arial, sans-serif" fill="black" font-weight="bold">2:1</text></g>
<path d="M 214.3 10 L 269.4 10 L 269.4 18 L 214.3 18 L 214.3 10 Z" fill="none" stroke="black" stroke-width="0.25" />
<g transform="translate(215.6 15.7) scale(1,-1)"><text x="0" y="0" font-size="2" text-anchor="start" dominant-baseline="auto" font-family="Arial, sans-serif" fill="#555555" font-weight="normal">SHEET</text></g>
<g transform="translate(241.85 12.3) scale(1,-1)"><text x="0" y="0" font-size="3" text-anchor="middle" dominant-baseline="auto" font-family="Arial, sans-serif" fill="black" font-weight="bold">2 OF 2</text></g>
</g>
</svg>
