<?xml version="1.0" encoding="UTF-8" standalone="no"?>
<svg xmlns="http://www.w3.org/2000/svg" version="1.1" width="431.8mm" height="279.4mm" viewBox="0 0 431.8 279.4">
<g transform="translate(0, 279.4) scale(1, -1)">
<path d="M 10 10 L 421.8 10 L 421.8 269.4 L 10 269.4 L 10 10 Z" fill="none" stroke="black" stroke-width="0.5" />
<path d="M 61.475 269.4 L 61.475 279.4" fill="none" stroke="black" stroke-width="0.2" />
<path d="M 61.475 0 L 61.475 10" fill="none" stroke="black" stroke-width="0.2" />
<path d="M 112.95 269.4 L 112.95 279.4" fill="none" stroke="black" stroke-width="0.2" />
<path d="M 112.95 0 L 112.95 10" fill="none" stroke="black" stroke-width="0.2" />
<path d="M 164.425 269.4 L 164.425 279.4" fill="none" stroke="black" stroke-width="0.2" />
<path d="M 164.425 0 L 164.425 10" fill="none" stroke="black" stroke-width="0.2" />
<path d="M 215.9 269.4 L 215.9 279.4" fill="none" stroke="black" stroke-width="0.2" />
<path d="M 215.9 0 L 215.9 10" fill="none" stroke="black" stroke-width="0.2" />
<path d="M 267.375 269.4 L 267.375 279.4" fill="none" stroke="black" stroke-width="0.2" />
<path d="M 267.375 0 L 267.375 10" fill="none" stroke="black" stroke-width="0.2" />
<path d="M 318.85 269.4 L 318.85 279.4" fill="none" stroke="black" stroke-width="0.2" />
<path d="M 318.85 0 L 318.85 10" fill="none" stroke="black" stroke-width="0.2" />
<path d="M 370.325 269.4 L 370.325 279.4" fill="none" stroke="black" stroke-width="0.2" />
<path d="M 370.325 0 L 370.325 10" fill="none" stroke="black" stroke-width="0.2" />
<path d="M 0 61.88 L 10 61.88" fill="none" stroke="black" stroke-width="0.2" />
<path d="M 421.8 61.88 L 431.8 61.88" fill="none" stroke="black" stroke-width="0.2" />
<path d="M 0 113.76 L 10 113.76" fill="none" stroke="black" stroke-width="0.2" />
<path d="M 421.8 113.76 L 431.8 113.76" fill="none" stroke="black" stroke-width="0.2" />
<path d="M 0 165.64 L 10 165.64" fill="none" stroke="black" stroke-width="0.2" />
<path d="M 421.8 165.64 L 431.8 165.64" fill="none" stroke="black" stroke-width="0.2" />
<path d="M 0 217.52 L 10 217.52" fill="none" stroke="black" stroke-width="0.2" />
<path d="M 421.8 217.52 L 431.8 217.52" fill="none" stroke="black" stroke-width="0.2" />
<g transform="translate(35.7375 273.525) scale(1,-1)"><text x="0" y="0" font-size="2.5" text-anchor="middle" dominant-baseline="auto" font-family="Arial, sans-serif" fill="black" font-weight="normal">1</text></g>
<g transform="translate(35.7375 4.125) scale(1,-1)"><text x="0" y="0" font-size="2.5" text-anchor="middle" dominant-baseline="auto" font-family="Arial, sans-serif" fill="black" font-weight="normal">1</text></g>
<g transform="translate(87.2125 273.525) scale(1,-1)"><text x="0" y="0" font-size="2.5" text-anchor="middle" dominant-baseline="auto" font-family="Arial, sans-serif" fill="black" font-weight="normal">2</text></g>
<g transform="translate(87.2125 4.125) scale(1,-1)"><text x="0" y="0" font-size="2.5" text-anchor="middle" dominant-baseline="auto" font-family="Arial, sans-serif" fill="black" font-weight="normal">2</text></g>
<g transform="translate(138.6875 273.525) scale(1,-1)"><text x="0" y="0" font-size="2.5" text-anchor="middle" dominant-baseline="auto" font-family="Arial, sans-serif" fill="black" font-weight="normal">3</text></g>
<g transform="translate(138.6875 4.125) scale(1,-1)"><text x="0" y="0" font-size="2.5" text-anchor="middle" dominant-baseline="auto" font-family="Arial, sans-serif" fill="black" font-weight="normal">3</text></g>
<g transform="translate(190.1625 273.525) scale(1,-1)"><text x="0" y="0" font-size="2.5" text-anchor="middle" dominant-baseline="auto" font-family="Arial, sans-serif" fill="black" font-weight="normal">4</text></g>
<g transform="translate(190.1625 4.125) scale(1,-1)"><text x="0" y="0" font-size="2.5" text-anchor="middle" dominant-baseline="auto" font-family="Arial, sans-serif" fill="black" font-weight="normal">4</text></g>
<g transform="translate(241.6375 273.525) scale(1,-1)"><text x="0" y="0" font-size="2.5" text-anchor="middle" dominant-baseline="auto" font-family="Arial, sans-serif" fill="black" font-weight="normal">5</text></g>
<g transform="translate(241.6375 4.125) scale(1,-1)"><text x="0" y="0" font-size="2.5" text-anchor="middle" dominant-baseline="auto" font-family="Arial, sans-serif" fill="black" font-weight="normal">5</text></g>
<g transform="translate(293.1125 273.525) scale(1,-1)"><text x="0" y="0" font-size="2.5" text-anchor="middle" dominant-baseline="auto" font-family="Arial, sans-serif" fill="black" font-weight="normal">6</text></g>
<g transform="translate(293.1125 4.125) scale(1,-1)"><text x="0" y="0" font-size="2.5" text-anchor="middle" dominant-baseline="auto" font-family="Arial, sans-serif" fill="black" font-weight="normal">6</text></g>
<g transform="translate(344.5875 273.525) scale(1,-1)"><text x="0" y="0" font-size="2.5" text-anchor="middle" dominant-baseline="auto" font-family="Arial, sans-serif" fill="black" font-weight="normal">7</text></g>
<g transform="translate(344.5875 4.125) scale(1,-1)"><text x="0" y="0" font-size="2.5" text-anchor="middle" dominant-baseline="auto" font-family="Arial, sans-serif" fill="black" font-weight="normal">7</text></g>
<g transform="translate(396.0625 273.525) scale(1,-1)"><text x="0" y="0" font-size="2.5" text-anchor="middle" dominant-baseline="auto" font-family="Arial, sans-serif" fill="black" font-weight="normal">8</text></g>
<g transform="translate(396.0625 4.125) scale(1,-1)"><text x="0" y="0" font-size="2.5" text-anchor="middle" dominant-baseline="auto" font-family="Arial, sans-serif" fill="black" font-weight="normal">8</text></g>
<g transform="translate(5 242.585) scale(1,-1)"><text x="0" y="0" font-size="2.5" text-anchor="middle" dominant-baseline="auto" font-family="Arial, sans-serif" fill="black" font-weight="normal">A</text></g>
<g transform="translate(426.8 242.585) scale(1,-1)"><text x="0" y="0" font-size="2.5" text-anchor="middle" dominant-baseline="auto" font-family="Arial, sans-serif" fill="black" font-weight="normal">A</text></g>
<g transform="translate(5 190.705) scale(1,-1)"><text x="0" y="0" font-size="2.5" text-anchor="middle" dominant-baseline="auto" font-family="Arial, sans-serif" fill="black" font-weight="normal">B</text></g>
<g transform="translate(426.8 190.705) scale(1,-1)"><text x="0" y="0" font-size="2.5" text-anchor="middle" dominant-baseline="auto" font-family="Arial, sans-serif" fill="black" font-weight="normal">B</text></g>
<g transform="translate(5 138.825) scale(1,-1)"><text x="0" y="0" font-size="2.5" text-anchor="middle" dominant-baseline="auto" font-family="Arial, sans-serif" fill="black" font-weight="normal">C</text></g>
<g transform="translate(426.8 138.825) scale(1,-1)"><text x="0" y="0" font-size="2.5" text-anchor="middle" dominant-baseline="auto" font-family="Arial, sans-serif" fill="black" font-weight="normal">C</text></g>
<g transform="translate(5 86.945) scale(1,-1)"><text x="0" y="0" font-size="2.5" text-anchor="middle" dominant-baseline="auto" font-family="Arial, sans-serif" fill="black" font-weight="normal">D</text></g>
<g transform="translate(426.8 86.945) scale(1,-1)"><text x="0" y="0" font-size="2.5" text-anchor="middle" dominant-baseline="auto" font-family="Arial, sans-serif" fill="black" font-weight="normal">D</text></g>
<g transform="translate(5 35.065) scale(1,-1)"><text x="0" y="0" font-size="2.5" text-anchor="middle" dominant-baseline="auto" font-family="Arial, sans-serif" fill="black" font-weight="normal">E</text></g>
<g transform="translate(426.8 35.065) scale(1,-1)"><text x="0" y="0" font-size="2.5" text-anchor="middle" dominant-baseline="auto" font-family="Arial, sans-serif" fill="black" font-weight="normal">E</text></g>
<path d="M 177.8 133.3 L 254 133.3 L 254 177.75 L 247.65 184.1 L 177.8 184.1 L 177.8 133.3 Z" fill="none" stroke="black" stroke-width="0.5" />
<path d="M 195.2625 146 A 4.7625 4.7625 0 0 1 185.7375 146 A 4.7625 4.7625 0 0 1 195.2625 146 Z" fill="none" stroke="black" stroke-width="0.5" />
<path d="M 183.1975 146 L 197.8025 146" fill="none" stroke="black" stroke-width="0.25" stroke-dasharray="24,1.5,3,1.5" />
<path d="M 190.5 138.6975 L 190.5 153.3025" fill="none" stroke="black" stroke-width="0.25" stroke-dasharray="24,1.5,3,1.5" />
<path d="M 246.0625 146 A 4.7625 4.7625 0 0 1 236.5375 146 A 4.7625 4.7625 0 0 1 246.0625 146 Z" fill="none" stroke="black" stroke-width="0.5" />
<path d="M 233.9975 146 L 248.6025 146" fill="none" stroke="black" stroke-width="0.25" stroke-dasharray="24,1.5,3,1.5" />
<path d="M 241.3 138.6975 L 241.3 153.3025" fill="none" stroke="black" stroke-width="0.25" stroke-dasharray="24,1.5,3,1.5" />
<path d="M 195.2625 171.4 A 4.7625 4.7625 0 0 1 185.7375 171.4 A 4.7625 4.7625 0 0 1 195.2625 171.4 Z" fill="none" stroke="black" stroke-width="0.5" />
<path d="M 183.1975 171.4 L 197.8025 171.4" fill="none" stroke="black" stroke-width="0.25" stroke-dasharray="24,1.5,3,1.5" />
<path d="M 190.5 164.0975 L 190.5 178.7025" fill="none" stroke="black" stroke-width="0.25" stroke-dasharray="24,1.5,3,1.5" />
<path d="M 246.0625 171.4 A 4.7625 4.7625 0 0 1 236.5375 171.4 A 4.7625 4.7625 0 0 1 246.0625 171.4 Z" fill="none" stroke="black" stroke-width="0.5" />
<path d="M 233.9975 171.4 L 248.6025 171.4" fill="none" stroke="black" stroke-width="0.25" stroke-dasharray="24,1.5,3,1.5" />
<path d="M 241.3 164.0975 L 241.3 178.7025" fill="none" stroke="black" stroke-width="0.25" stroke-dasharray="24,1.5,3,1.5" />
<path d="M 177.8 132.3 L 177.8 118.6" fill="none" stroke="black" stroke-width="0.25" />
<path d="M 254 132.3 L 254 118.6" fill="none" stroke="black" stroke-width="0.25" />
<path d="M 180.8 120.6 L 205.9625 120.6" fill="none" stroke="black" stroke-width="0.25" />
<path d="M 251 120.6 L 225.8375 120.6" fill="none" stroke="black" stroke-width="0.25" />
<path d="M 177.8 120.6 L 180.8 120.1 L 180.8 121.1 L 177.8 120.6 Z" fill="black" />
<path d="M 254 120.6 L 251 121.1 L 251 120.1 L 254 120.6 Z" fill="black" />
<g transform="translate(215.9 119.725) scale(1,-1)"><text x="0" y="0" font-size="2.5" text-anchor="middle" dominant-baseline="auto" font-family="Arial, sans-serif" fill="black" font-weight="normal">3.000 ±.010</text></g>
<path d="M 176.8 133.3 L 163.1 133.3" fill="none" stroke="black" stroke-width="0.25" />
<path d="M 176.8 184.1 L 163.1 184.1" fill="none" stroke="black" stroke-width="0.25" />
<path d="M 165.1 136.3 L 165.1 155.95" fill="none" stroke="black" stroke-width="0.25" />
<path d="M 165.1 181.1 L 165.1 161.45" fill="none" stroke="black" stroke-width="0.25" />
<path d="M 165.1 133.3 L 165.6 136.3 L 164.6 136.3 L 165.1 133.3 Z" fill="black" />
<path d="M 165.1 184.1 L 164.6 181.1 L 165.6 181.1 L 165.1 184.1 Z" fill="black" />
<g transform="translate(165.1 157.825) scale(1,-1)"><text x="0" y="0" font-size="2.5" text-anchor="middle" dominant-baseline="auto" font-family="Arial, sans-serif" fill="black" font-weight="normal">2.000 ±.010</text></g>
<path d="M 177.8 184.1 L 177.8 194.26" fill="none" stroke="black" stroke-width="0.25" />
<g transform="translate(177.8 196.135) scale(1,-1)"><text x="0" y="0" font-size="2.5" text-anchor="middle" dominant-baseline="auto" font-family="Arial, sans-serif" fill="black" font-weight="normal">.000</text></g>
<path d="M 190.5 184.1 L 190.5 194.26" fill="none" stroke="black" stroke-width="0.25" />
<g transform="translate(190.5 196.135) scale(1,-1)"><text x="0" y="0" font-size="2.5" text-anchor="middle" dominant-baseline="auto" font-family="Arial, sans-serif" fill="black" font-weight="normal">.500</text></g>
<path d="M 241.3 184.1 L 241.3 194.26" fill="none" stroke="black" stroke-width="0.25" />
<g transform="translate(241.3 196.135) scale(1,-1)"><text x="0" y="0" font-size="2.5" text-anchor="middle" dominant-baseline="auto" font-family="Arial, sans-serif" fill="black" font-weight="normal">2.500</text></g>
<path d="M 250.825 180.925 L 258.34254 183.66116" fill="none" stroke="black" stroke-width="0.25" />
<path d="M 258.34254 183.66116 L 262.34254 183.66116" fill="none" stroke="black" stroke-width="0.25" />
<path d="M 250.825 180.925 L 253.81509 181.48121 L 253.47307 182.42091 L 250.825 180.925 Z" fill="black" />
<g transform="translate(263.34254 182.78616) scale(1,-1)"><text x="0" y="0" font-size="2.5" text-anchor="start" dominant-baseline="auto" font-family="Arial, sans-serif" fill="black" font-weight="normal">.250 X 45°</text></g>
<path d="M 244.6676 168.0324 L 250.32445 162.37555" fill="none" stroke="black" stroke-width="0.25" />
<path d="M 250.32445 162.37555 L 254.32445 162.37555" fill="none" stroke="black" stroke-width="0.25" />
<path d="M 244.6676 168.0324 L 246.43536 165.55753 L 247.14247 166.26464 L 244.6676 168.0324 Z" fill="black" />
<g transform="translate(255.32445 161.50055) scale(1,-1)"><text x="0" y="0" font-size="2.5" text-anchor="start" dominant-baseline="auto" font-family="Arial, sans-serif" fill="black" font-weight="normal">⌀.375</text></g>
<path d="M 187.1324 142.6324 L 181.47555 136.97555" fill="none" stroke="black" stroke-width="0.25" />
<path d="M 181.47555 136.97555 L 177.47555 136.97555" fill="none" stroke="black" stroke-width="0.25" />
<path d="M 187.1324 142.6324 L 184.65753 140.86464 L 185.36464 140.15753 L 187.1324 142.6324 Z" fill="black" />
<g transform="translate(176.47555 136.10055) scale(1,-1)"><text x="0" y="0" font-size="2.5" text-anchor="end" dominant-baseline="auto" font-family="Arial, sans-serif" fill="black" font-weight="normal">⌀.375 THRU</text></g>
<path d="M 231.8 10 L 421.8 10 L 421.8 48 L 231.8 48 L 231.8 10 Z" fill="none" stroke="black" stroke-width="0.25" />
<path d="M 231.8 40.4 L 251.75 40.4 L 251.75 48 L 231.8 48 L 231.8 40.4 Z" fill="none" stroke="black" stroke-width="0.25" />
<path d="M 251.75 40.4 L 289.655 40.4 L 289.655 48 L 251.75 48 L 251.75 40.4 Z" fill="none" stroke="black" stroke-width="0.25" />
<g transform="translate(270.7025 43.5) scale(1,-1)"><text x="0" y="0" font-size="2" text-anchor="middle" dominant-baseline="auto" font-family="Arial, sans-serif" fill="black" font-weight="normal">NAME</text></g>
<path d="M 289.655 40.4 L 311.6 40.4 L 311.6 48 L 289.655 48 L 289.655 40.4 Z" fill="none" stroke="black" stroke-width="0.25" />
<g transform="translate(300.6275 43.5) scale(1,-1)"><text x="0" y="0" font-size="2" text-anchor="middle" dominant-baseline="auto" font-family="Arial, sans-serif" fill="black" font-weight="normal">DATE</text></g>
<path d="M 231.8 32.8 L 251.75 32.8 L 251.75 40.4 L 231.8 40.4 L 231.8 32.8 Z" fill="none" stroke="black" stroke-width="0.25" />
<g transform="translate(241.775 35.935) scale(1,-1)"><text x="0" y="0" font-size="1.9" text-anchor="middle" dominant-baseline="auto" font-family="Arial, sans-serif" fill="black" font-weight="normal">DRAWN</text></g>
<path d="M 251.75 32.8 L 289.655 32.8 L 289.655 40.4 L 251.75 40.4 L 251.75 32.8 Z" fill="none" stroke="black" stroke-width="0.25" />
<g transform="translate(270.7025 35.1) scale(1,-1)"><text x="0" y="0" font-size="3" text-anchor="middle" dominant-baseline="auto" font-family="Arial, sans-serif" fill="black" font-weight="bold">S. RICHS</text></g>
<path d="M 289.655 32.8 L 311.6 32.8 L 311.6 40.4 L 289.655 40.4 L 289.655 32.8 Z" fill="none" stroke="black" stroke-width="0.25" />
<g transform="translate(300.6275 35.1) scale(1,-1)"><text x="0" y="0" font-size="3" text-anchor="middle" dominant-baseline="auto" font-family="Arial, sans-serif" fill="black" font-weight="bold">2026-08-07</text></g>
<path d="M 231.8 25.2 L 251.75 25.2 L 251.75 32.8 L 231.8 32.8 L 231.8 25.2 Z" fill="none" stroke="black" stroke-width="0.25" />
<g transform="translate(241.775 28.335) scale(1,-1)"><text x="0" y="0" font-size="1.9" text-anchor="middle" dominant-baseline="auto" font-family="Arial, sans-serif" fill="black" font-weight="normal">CHECKED</text></g>
<path d="M 251.75 25.2 L 289.655 25.2 L 289.655 32.8 L 251.75 32.8 L 251.75 25.2 Z" fill="none" stroke="black" stroke-width="0.25" />
<path d="M 289.655 25.2 L 311.6 25.2 L 311.6 32.8 L 289.655 32.8 L 289.655 25.2 Z" fill="none" stroke="black" stroke-width="0.25" />
<path d="M 231.8 17.6 L 251.75 17.6 L 251.75 25.2 L 231.8 25.2 L 231.8 17.6 Z" fill="none" stroke="black" stroke-width="0.25" />
<g transform="translate(241.775 20.735) scale(1,-1)"><text x="0" y="0" font-size="1.9" text-anchor="middle" dominant-baseline="auto" font-family="Arial, sans-serif" fill="black" font-weight="normal">ENG APPR.</text></g>
<path d="M 251.75 17.6 L 289.655 17.6 L 289.655 25.2 L 251.75 25.2 L 251.75 17.6 Z" fill="none" stroke="black" stroke-width="0.25" />
<path d="M 289.655 17.6 L 311.6 17.6 L 311.6 25.2 L 289.655 25.2 L 289.655 17.6 Z" fill="none" stroke="black" stroke-width="0.25" />
<path d="M 231.8 10 L 251.75 10 L 251.75 17.6 L 231.8 17.6 L 231.8 10 Z" fill="none" stroke="black" stroke-width="0.25" />
<g transform="translate(241.775 13.135) scale(1,-1)"><text x="0" y="0" font-size="1.9" text-anchor="middle" dominant-baseline="auto" font-family="Arial, sans-serif" fill="black" font-weight="normal">MFG APPR.</text></g>
<path d="M 251.75 10 L 289.655 10 L 289.655 17.6 L 251.75 17.6 L 251.75 10 Z" fill="none" stroke="black" stroke-width="0.25" />
<path d="M 289.655 10 L 311.6 10 L 311.6 17.6 L 289.655 17.6 L 289.655 10 Z" fill="none" stroke="black" stroke-width="0.25" />
<path d="M 311.6 40 L 329.232 40 L 329.232 48 L 311.6 48 L 311.6 40 Z" fill="none" stroke="black" stroke-width="0.25" />
<g transform="translate(312.9 45.7) scale(1,-1)"><text x="0" y="0" font-size="2" text-anchor="start" dominant-baseline="auto" font-family="Arial, sans-serif" fill="#555555" font-weight="normal">SIZE</text></g>
<g transform="translate(320.416 42.3) scale(1,-1)"><text x="0" y="0" font-size="3" text-anchor="middle" dominant-baseline="auto" font-family="Arial, sans-serif" fill="black" font-weight="bold">B</text></g>
<path d="M 329.232 40 L 400.862 40 L 400.862 48 L 329.232 48 L 329.232 40 Z" fill="none" stroke="black" stroke-width="0.25" />
<g transform="translate(330.532 45.7) scale(1,-1)"><text x="0" y="0" font-size="2" text-anchor="start" dominant-baseline="auto" font-family="Arial, sans-serif" fill="#555555" font-weight="normal">DWG NO</text></g>
<g transform="translate(365.047 42.3) scale(1,-1)"><text x="0" y="0" font-size="3" text-anchor="middle" dominant-baseline="auto" font-family="Arial, sans-serif" fill="black" font-weight="bold">DRW-2000</text></g>
<path d="M 400.862 40 L 421.8 40 L 421.8 48 L 400.862 48 L 400.862 40 Z" fill="none" stroke="black" stroke-width="0.25" />
<g transform="translate(402.162 45.7) scale(1,-1)"><text x="0" y="0" font-size="2" text-anchor="start" dominant-baseline="auto" font-family="Arial, sans-serif" fill="#555555" font-weight="normal">REV</text></g>
<g transform="translate(411.331 42.3) scale(1,-1)"><text x="0" y="0" font-size="3" text-anchor="middle" dominant-baseline="auto" font-family="Arial, sans-serif" fill="black" font-weight="bold">A</text></g>
<path d="M 311.6 26 L 421.8 26 L 421.8 40 L 311.6 40 L 311.6 26 Z" fill="none" stroke="black" stroke-width="0.25" />
<g transform="translate(312.9 37.7) scale(1,-1)"><text x="0" y="0" font-size="2" text-anchor="start" dominant-baseline="auto" font-family="Arial, sans-serif" fill="#555555" font-weight="normal">TITLE</text></g>
<g transform="translate(366.7 28.3) scale(1,-1)"><text x="0" y="0" font-size="3.9" text-anchor="middle" dominant-baseline="auto" font-family="Arial, sans-serif" fill="black" font-weight="bold">PLATE, COVER</text></g>
<path d="M 311.6 18 L 339.15 18 L 339.15 26 L 311.6 26 L 311.6 18 Z" fill="none" stroke="black" stroke-width="0.25" />
<g transform="translate(312.9 23.7) scale(1,-1)"><text x="0" y="0" font-size="2" text-anchor="start" dominant-baseline="auto" font-family="Arial, sans-serif" fill="#555555" font-weight="normal">MATERIAL</text></g>
<g transform="translate(325.375 20.3) scale(1,-1)"><text x="0" y="0" font-size="3" text-anchor="middle" dominant-baseline="auto" font-family="Arial, sans-serif" fill="black" font-weight="bold">6061-T6 ALUMINUM</text></g>
<path d="M 339.15 18 L 366.7 18 L 366.7 26 L 339.15 26 L 339.15 18 Z" fill="none" stroke="black" stroke-width="0.25" />
<g transform="translate(340.45 23.7) scale(1,-1)"><text x="0" y="0" font-size="2" text-anchor="start" dominant-baseline="auto" font-family="Arial, sans-serif" fill="#555555" font-weight="normal">FINISH</text></g>
<g transform="translate(352.925 20.3) scale(1,-1)"><text x="0" y="0" font-size="3" text-anchor="middle" dominant-baseline="auto" font-family="Arial, sans-serif" fill="black" font-weight="bold">ANODIZE, CLEAR</text></g>
<path d="M 366.7 18 L 400.862 18 L 400.862 26 L 366.7 26 L 366.7 18 Z" fill="none" stroke="black" stroke-width="0.25" />
<g transform="translate(368 23.7) scale(1,-1)"><text x="0" y="0" font-size="2" text-anchor="start" dominant-baseline="auto" font-family="Arial, sans-serif" fill="#555555" font-weight="normal">TOLERANCES</text></g>
<g transform="translate(368 20.97) scale(1,-1)"><text x="0" y="0" font-size="2.1" text-anchor="start" dominant-baseline="auto" font-family="Arial, sans-serif" fill="black" font-weight="normal">.XX ±.01</text></g>
<g transform="translate(368 18.24) scale(1,-1)"><text x="0" y="0" font-size="2.1" text-anchor="start" dominant-baseline="auto" font-family="Arial, sans-serif" fill="black" font-weight="normal">.XXX ±.005</text></g>
<g transform="translate(368 15.51) scale(1,-1)"><text x="0" y="0" font-size="2.1" text-anchor="start" dominant-baseline="auto" font-family="Arial, sans-serif" fill="black" font-weight="normal">ANGLES ±0.5°</text></g>
<path d="M 400.862 18 L 421.8 18 L 421.8 26 L 400.862 26 L 400.862 18 Z" fill="none" stroke="black" stroke-width="0.25" />
<path d="M 413.931 21.5 A 2.6 2.6 0 0 1 408.731 21.5 A 2.6 2.6 0 0 1 413.931 21.5 Z" fill="none" stroke="black" stroke-width="0.25" />
<path d="M 412.631 21.5 A 1.3 1.3 0 0 1 410.031 21.5 A 1.3 1.3 0 0 1 412.631 21.5 Z" fill="none" stroke="black" stroke-width="0.25" />
<path d="M 414.971 20.2 L 414.971 22.8 L 421.471 24.1 L 421.471 18.9 L 414.971 20.2 Z" fill="none" stroke="black" stroke-width="0.25" />
<path d="M 311.6 10 L 366.7 10 L 366.7 18 L 311.6 18 L 311.6 10 Z" fill="none" stroke="black" stroke-width="0.25" />
<g transform="translate(312.9 15.7) scale(1,-1)"><text x="0" y="0" font-size="2" text-anchor="start" dominant-baseline="auto" font-family="Arial, sans-serif" fill="#555555" font-weight="normal">SCALE</text></g>
<g transform="translate(339.15 12.3) scale(1,-1)"><text x="0" y="0" font-size="3" text-anchor="middle" dominant-baseline="auto" font-family="Arial, sans-serif" fill="black" font-weight="bold">1:1</text></g>
<path d="M 366.7 10 L 421.8 10 L 421.8 18 L 366.7 18 L 366.7 10 Z" fill="none" stroke="black" stroke-width="0.25" />
<g transform="translate(368 15.7) scale(1,-1)"><text x="0" y="0" font-size="2" text-anchor="start" dominant-baseline="auto" font-family="Arial, sans-serif" fill="#555555" font-weight="normal">SHEET</text></g>
<g transform="translate(394.25 12.3) scale(1,-1)"><text x="0" y="0" font-size="3" text-anchor="middle" dominant-baseline="auto" font-family="Arial, sans-serif" fill="black" font-weight="bold">1 OF 1</text></g>
</g>
</svg>
